<?xml version="1.0" encoding="utf-8"?>
<!-- Generator: Adobe Illustrator 17.1.0, SVG Export Plug-In . SVG Version: 6.00 Build 0)  -->
<!DOCTYPE svg PUBLIC "-//W3C//DTD SVG 1.1//EN" "http://www.w3.org/Graphics/SVG/1.1/DTD/svg11.dtd">
<svg version="1.1" id="Calque_1" xmlns="http://www.w3.org/2000/svg" xmlns:xlink="http://www.w3.org/1999/xlink" x="0px" y="0px"
	 viewBox="0 0 55.9 81.5" enable-background="new 0 0 55.9 81.5" xml:space="preserve">
<g>
	<path id="rect4937_5_" fill="#FFFFFF" d="M27.9,0L27.9,0c12.4,0,22.4,14,22.4,31.3v11.3c0,17.3-10,31.3-22.4,31.3l0,0
		c-12.4,0-22.4-14-22.4-31.3V31.3C5.6,14,15.6,0,27.9,0z"/>
	<circle id="circle22-4_5_" fill="#FF0066" cx="23.2" cy="18.8" r="2.4"/>
	<circle id="circle24-5_5_" fill="#FF0066" cx="35.7" cy="18.8" r="2.4"/>
	<path id="path26-2_5_" fill="#FF0066" d="M20.5,30.1l7.9,2.6c0.3,0.2,0.7,0.3,1.1,0.3
		c0.5,0,1.1-0.2,1.4-0.6c0.3-0.3,0.5-0.7,0.5-1.1v-6.1c0-0.4-0.2-0.8-0.5-1.1c-0.7-0.7-1.7-0.8-2.5-0.3l-7.9,2.6
		c-0.2,0.1-0.4,0.2-0.6,0.4c-0.8,0.8-0.8,2.1,0,2.9C20,29.9,20.2,30,20.5,30.1L20.5,30.1z M28.2,27.2v2.2l-3.3-1.1L28.2,27.2
		L28.2,27.2z"/>
	<path fill="#FFCC00" d="M52.4,40.7l-7.7,9.5l-6.2-9.5l-2.9,5.5l-4.4,5.4L21.1,41.3l-9.2,9.8L4.2,40.6l-4.2,12L0,53.7
		C0,69,12.5,81.5,28,81.5c15.4,0,28-12.4,28-27.8L52.4,40.7z"/>
</g>
</svg>
