<?xml version="1.0" encoding="utf-8"?>
<!-- Generator: Adobe Illustrator 17.1.0, SVG Export Plug-In . SVG Version: 6.00 Build 0)  -->
<!DOCTYPE svg PUBLIC "-//W3C//DTD SVG 1.1//EN" "http://www.w3.org/Graphics/SVG/1.1/DTD/svg11.dtd">
<svg version="1.1" id="Calque_1" xmlns="http://www.w3.org/2000/svg" xmlns:xlink="http://www.w3.org/1999/xlink" x="0px" y="0px"
	 viewBox="0 0 22.6 23.9" enable-background="new 0 0 22.6 23.9" xml:space="preserve">
<path fill="#FFFFFF" d="M8.5,23.9C4.3,23.9,0,21,0,14.6C0,8.8,4.4,0.4,8.5,0.4c3.8,0,8.3,8.6,8.3,14.2C16.8,20.2,13.5,23.9,8.5,23.9
	z M8.5,1.8c-3,0-7.1,7.4-7.1,12.8c0,4.8,2.8,7.9,7.1,7.9c4.2,0,6.9-3.1,6.9-7.9C15.4,9.2,11,1.8,8.5,1.8z"/>
<path fill="#FFFFFF" d="M15.3,20.8c-0.4,0-0.7-0.3-0.7-0.7c0-0.4,0.3-0.7,0.7-0.7c3.7,0,6-2.6,6-6.9c0-4.7-3.8-11.1-6-11.1
	c-0.9,0-1.9,0.8-3,2.2c-0.2,0.3-0.7,0.4-1,0.1c-0.3-0.2-0.4-0.7-0.1-1C12.5,0.9,13.9,0,15.3,0c3.4,0,7.4,7.6,7.4,12.5
	C22.6,17.5,19.7,20.8,15.3,20.8z"/>
</svg>
