<?xml version="1.0" encoding="utf-8"?>
<!-- Generator: Adobe Illustrator 17.1.0, SVG Export Plug-In . SVG Version: 6.00 Build 0)  -->
<!DOCTYPE svg PUBLIC "-//W3C//DTD SVG 1.1//EN" "http://www.w3.org/Graphics/SVG/1.1/DTD/svg11.dtd">
<svg version="1.1" id="Calque_1" xmlns="http://www.w3.org/2000/svg" xmlns:xlink="http://www.w3.org/1999/xlink" x="0px" y="0px"
	 viewBox="0 0 26.8 25.6" enable-background="new 0 0 26.8 25.6" xml:space="preserve">
<g>
	<path fill="#FFFFFF" d="M13.9,16.7c-0.3-1.9-1.4-3.7-3.2-4.7v-0.8c0-2-1.8-3.7-4-3.7H2.8C1.8,7.6,1,8.4,1,9.3v4.1c0,0,0,0.1,0,0.1
		c-0.7,0.9-1,2-1,3.1v1.7c0,1.9,1,3.6,2.7,4.6l4.6,2.6c0.1,0,0.2,0.1,0.2,0.1s0.2,0,0.3-0.1C8,25.5,8,25.3,8,25.1v-4.9
		c1.3-0.2,2.4-1.4,2.4-2.8v-0.6c0.4-0.1,0.7-0.1,1,0l1.8,0.5c0.2,0,0.3,0,0.5-0.1C13.9,17,13.9,16.9,13.9,16.7z M2.8,8.6h3.9
		c1.6,0,3,1.2,3,2.7v0.3c-0.9-0.4-1.9-0.5-3-0.5c0,0,0,0-0.1,0c-1.5,0-3,0.4-4.2,1.2c-0.2,0.1-0.3,0.2-0.5,0.3V9.3
		C2,8.9,2.4,8.6,2.8,8.6z M7.6,19.3c-0.2,0-0.4-0.2-0.4-0.4v-0.5c0-0.4,0.3-0.8,0.7-0.9l1.6-0.4v0.3C9.4,18.5,8.6,19.3,7.6,19.3z
		 M11.7,15.8c-0.6-0.1-1.2-0.1-1.9,0.2l-2.2,0.6c-0.8,0.2-1.4,1-1.4,1.8V19c0,0.6,0.4,1.1,0.9,1.3v4.1l-3.9-2.2
		C1.8,21.3,1,19.9,1,18.4v-1.7c0-1.5,0.8-2.9,2-3.6c1.1-0.7,2.4-1,3.7-1c0,0,0,0,0,0C8,12,9,12.2,10,12.8c1.4,0.7,2.4,1.9,2.8,3.4
		L11.7,15.8z"/>
	<circle fill="#FFFFFF" cx="8.7" cy="14" r="0.5"/>
</g>
<g>
	<path fill="#FFFFFF" d="M14.4,12.6c-0.1,0-0.1,0-0.2,0c-0.1-0.1-0.2-0.2-0.2-0.4V3.7c0-2,1.7-3.7,3.7-3.7h5.5c2,0,3.7,1.7,3.7,3.7
		v2.5c0,2-1.7,3.7-3.7,3.7h-5.5l-3,2.7C14.6,12.6,14.5,12.6,14.4,12.6z M17.6,0.8c-1.6,0-2.9,1.3-2.9,2.9v7.6l2.5-2.2
		C17.3,9,17.4,9,17.5,9c0,0,0,0,0.1,0c0,0,0,0,0,0h5.5C24.7,9,26,7.7,26,6.1V3.7c0-1.6-1.3-2.9-2.9-2.9L17.6,0.8L17.6,0.8z"/>
</g>
</svg>
