<?xml version="1.0" encoding="utf-8"?>
<!-- Generator: Adobe Illustrator 21.0.0, SVG Export Plug-In . SVG Version: 6.00 Build 0)  -->
<svg version="1.0" id="Calque_1" xmlns="http://www.w3.org/2000/svg" xmlns:xlink="http://www.w3.org/1999/xlink" x="0px" y="0px"
	 viewBox="0 0 58 57" style="enable-background:new 0 0 58 57;" xml:space="preserve">
<circle class="st0" fill="#FFFFFF" cx="27.5" cy="20.4" r="1.1"/>
<circle class="st0" fill="#FFFFFF" cx="33.2" cy="20.4" r="1.1"/>
<g>
	<path class="st0" fill="#FFFFFF" d="M55.9,12.9c-0.3-0.6-1.1-0.9-1.8-0.6l-12,5.5c-1.7-4.2-5.5-7.1-9.9-7.8c0-0.1,0.1-0.1,0.1-0.2V7.9
		c0-0.3-0.3-0.6-0.6-0.6s-0.6,0.3-0.6,0.6v1.4l-0.6,0.2l-1.1-5.3c-0.1-0.3-0.4-0.5-0.7-0.5c-0.3,0.1-0.5,0.4-0.5,0.7l1.1,5.4
		c-4.9,0.3-9.1,3.5-10.9,7.9l-12-5.5c-0.7-0.3-1.4,0-1.8,0.6c-0.2,0.5-0.2,0.9,0.1,1.4l12.7,18v0.2c0,5.2,3.2,9.8,7.7,11.7v3
		l-3.2,4.3c-0.3,0.3-0.2,0.9,0.1,1.2c0.3,0.3,0.9,0.2,1.2-0.1l1.8-2.5v2c0,0.5,0.3,0.8,0.8,0.8c0.5,0,0.8-0.3,0.8-0.8V50l1.8,2.6
		c0.1,0.2,0.4,0.3,0.7,0.3c0.1,0,0.3-0.1,0.5-0.1c0.3-0.3,0.5-0.7,0.2-1.2l-3.2-4.4V45c1.2,0.3,2.3,0.5,3.5,0.5
		c1.2,0,2.4-0.2,3.5-0.5v2.4l-3.2,4.3c-0.3,0.3-0.2,0.9,0.1,1.2c0.3,0.3,0.9,0.2,1.2-0.1l1.8-2.5v2c0,0.5,0.3,0.8,0.8,0.8
		s0.8-0.3,0.8-0.8v-2.1l1.8,2.6c0.1,0.2,0.4,0.3,0.7,0.3c0.1,0,0.3-0.1,0.5-0.1c0.3-0.3,0.5-0.7,0.2-1.2l-3.2-4.4v-2.8
		c4.5-2,7.7-6.5,7.7-11.7v-0.2l12.7-18C56.1,13.9,56.1,13.4,55.9,12.9z M41.6,31.7c-0.1,0.1-0.1,0.3-0.1,0.5v0.4
		c0,6.2-5,11.2-11.2,11.2s-11.2-5-11.2-11.2v-0.4c0-0.1-0.1-0.3-0.1-0.5L6.7,14.2l11.9,5.5c0.2,0.1,0.5,0.1,0.7,0
		c0.2-0.1,0.4-0.3,0.5-0.5c1.5-4.6,5.8-7.7,10.6-7.7s9.2,3.1,10.6,7.7c0.1,0.2,0.2,0.4,0.5,0.5c0.2,0.1,0.5,0.1,0.7,0L54,14.2
		L41.6,31.7z"/>
	<path class="st0" fill="#FFFFFF" d="M37.7,53.3c-0.4,0-0.7-0.2-0.9-0.5l-1.4-1.9v1.3c0,0.6-0.4,1.1-1.1,1.1s-1.1-0.4-1.1-1.1V51L32,52.8
		c-0.4,0.5-1.1,0.5-1.5,0.2c-0.2-0.1-0.3-0.3-0.3-0.5c-0.1,0.2-0.2,0.4-0.4,0.5c-0.2,0.1-0.4,0.2-0.6,0.2c-0.4,0-0.7-0.2-0.9-0.5
		l-1.4-1.9v1.3c0,0.6-0.4,1.1-1.1,1.1c-0.6,0-1.1-0.4-1.1-1.1v-1.3l-1.4,1.9c-0.4,0.5-1.1,0.5-1.5,0.2c-0.2-0.2-0.4-0.4-0.4-0.7
		c0-0.3,0-0.6,0.2-0.8l3.1-4.2v-2.7c-4.7-2.1-7.7-6.8-7.7-11.9v-0.1l-12.7-18c-0.3-0.5-0.3-1.1-0.1-1.7c0.4-0.7,1.3-1.1,2.1-0.7
		l11.8,5.4c1.9-4.4,6-7.4,10.7-7.8l-1-5.1c0-0.2,0-0.5,0.1-0.7c0.1-0.2,0.3-0.3,0.6-0.4c0.5-0.1,0.9,0.2,1,0.7l1,5l0.2-0.1V7.9
		c0-0.5,0.4-0.9,0.9-0.9s0.9,0.4,0.9,0.9v1.8c0,0,0,0,0,0c4.3,0.8,8,3.7,9.7,7.7L54,12.1c0.8-0.3,1.7,0,2.1,0.7l0,0
		c0.3,0.6,0.2,1.3-0.3,1.9l-12.7,18v0.1c0,5.2-3,9.8-7.7,11.9v2.5l3.1,4.3c0.3,0.5,0.2,1.1-0.2,1.5C38.2,53.2,37.9,53.3,37.7,53.3z
		 M35,49.3l2.3,3.2c0.1,0.1,0.3,0.2,0.5,0.2c0.1,0,0.2,0,0.4-0.1c0.2-0.1,0.3-0.5,0.1-0.8L35,47.4v-3l0.2-0.1
		c4.6-2,7.5-6.5,7.5-11.5v-0.3l0-0.1l12.7-18c0.4-0.5,0.4-1,0.3-1.4c-0.3-0.5-0.9-0.7-1.4-0.5L42,18.1l-0.1-0.2
		c-1.6-4-5.4-7-9.7-7.6l-0.2,0V10c0-0.1,0-0.2,0.1-0.2l0-1.8c0-0.2-0.2-0.4-0.4-0.4s-0.4,0.2-0.4,0.4v1.5l-1,0.4l-1.1-5.6
		c0-0.2-0.2-0.3-0.5-0.3c-0.1,0-0.2,0.1-0.2,0.2c-0.1,0.1-0.1,0.2-0.1,0.3l1.1,5.7l-0.3,0c-4.8,0.3-8.9,3.3-10.7,7.8l-0.1,0.2
		L6.2,12.6c-0.5-0.2-1.2,0-1.4,0.5c-0.2,0.4-0.2,0.8,0.1,1.2l12.8,18.1v0.3c0,5,2.9,9.5,7.5,11.5l0.1,0.1v3.2l-3.2,4.3
		c-0.1,0.1-0.1,0.3-0.1,0.4c0,0.2,0.1,0.3,0.2,0.4c0.2,0.2,0.6,0.1,0.8-0.1l2.3-3.1v2.8c0,0.3,0.2,0.6,0.6,0.6
		c0.3,0,0.6-0.2,0.6-0.6v-2.9l2.3,3.2c0.1,0.1,0.3,0.2,0.5,0.2c0.1,0,0.2,0,0.4-0.1c0.2-0.1,0.3-0.5,0.1-0.8l-3.2-4.5v-2.7l0.3,0.1
		c2,0.6,4.2,0.7,6.9,0l0.3-0.1v2.8l-3.2,4.3c-0.2,0.2-0.1,0.6,0.1,0.8c0.2,0.2,0.6,0.1,0.8-0.1l2.3-3.1v2.8c0,0.3,0.2,0.6,0.6,0.6
		s0.6-0.2,0.6-0.6V49.3z M26.9,47.2l3.1,4.3c0.1,0.1,0.1,0.2,0.1,0.3c0-0.1,0.1-0.2,0.2-0.3l3.1-4.2v-2c-2.5,0.6-4.7,0.5-6.6,0V47.2
		z M30.3,44c-6.3,0-11.4-5.1-11.4-11.4v-0.4c0-0.1,0-0.2-0.1-0.4L5.9,13.6l12.7,5.9c0.1,0,0.3,0,0.5,0c0.1,0,0.3-0.2,0.3-0.3
		c1.5-4.7,5.9-7.9,10.9-7.9c5,0,9.4,3.2,10.9,7.9c0.1,0.2,0.2,0.3,0.3,0.3c0.2,0.1,0.4,0.1,0.5,0l12.7-5.9L41.8,31.8
		c-0.1,0.1-0.1,0.2-0.1,0.3v0.4C41.7,38.9,36.6,44,30.3,44z M7.4,14.9l11.7,16.7c0.1,0.2,0.2,0.4,0.2,0.6v0.4
		c0,6,4.9,10.9,10.9,10.9c6,0,10.9-4.9,10.9-10.9v-0.4c0-0.3,0.1-0.4,0.2-0.6l0,0l11.9-16.7l-11,5.1c-0.3,0.1-0.6,0.1-0.9,0
		c-0.3-0.1-0.5-0.3-0.6-0.6c-1.5-4.5-5.6-7.6-10.4-7.6c-4.8,0-8.9,3-10.4,7.6c-0.1,0.3-0.4,0.5-0.6,0.6c-0.3,0.1-0.6,0.1-0.8,0
		L7.4,14.9z"/>
</g>
<path id="path26-2_6_" fill="#FFFFFF" class="st0" d="M25.5,26.8l4.2,1.4c0.2,0.1,0.4,0.2,0.6,0.2
	c0.3,0,0.6-0.1,0.8-0.3c0.2-0.2,0.2-0.4,0.2-0.6v-3.2c0-0.2-0.1-0.4-0.2-0.6c-0.3-0.3-0.9-0.4-1.3-0.2l-4.2,1.4
	c-0.1,0-0.2,0.1-0.3,0.2c-0.4,0.4-0.4,1.1,0,1.5C25.2,26.7,25.4,26.7,25.5,26.8L25.5,26.8z M29.6,25.3v1.1l-1.7-0.6L29.6,25.3
	L29.6,25.3z"/>
</svg>
