<?xml version="1.0" encoding="utf-8"?>
<!-- Generator: Adobe Illustrator 17.1.0, SVG Export Plug-In . SVG Version: 6.00 Build 0)  -->
<!DOCTYPE svg PUBLIC "-//W3C//DTD SVG 1.1//EN" "http://www.w3.org/Graphics/SVG/1.1/DTD/svg11.dtd">
<svg version="1.1" id="Calque_1" xmlns="http://www.w3.org/2000/svg" xmlns:xlink="http://www.w3.org/1999/xlink" x="0px" y="0px"
	 viewBox="0 0 51.6 49.3" enable-background="new 0 0 51.6 49.3" xml:space="preserve">
<circle fill="#FFFFFF" cx="23.1" cy="16.7" r="1.1"/>
<circle fill="#FFFFFF" cx="28.8" cy="16.7" r="1.1"/>
<path fill="#FFFFFF" d="M51.5,9.2c-0.3-0.6-1.1-0.9-1.8-0.6l-12,5.5c-1.7-4.2-5.5-7.1-9.9-7.8c0-0.1,0.1-0.1,0.1-0.2V4.2
	c0-0.3-0.3-0.6-0.6-0.6c-0.3,0-0.6,0.3-0.6,0.6v1.4L26,5.8L25,0.5c-0.1-0.3-0.4-0.5-0.7-0.5c-0.3,0.1-0.5,0.4-0.5,0.7l1.1,5.4
	c-4.9,0.3-9.1,3.5-10.9,7.9l-12-5.5c-0.7-0.3-1.4,0-1.8,0.6c-0.2,0.5-0.2,0.9,0.1,1.4l12.7,18v0.2c0,5.2,3.2,9.8,7.7,11.7v3
	l-3.2,4.3c-0.3,0.3-0.2,0.9,0.1,1.2c0.3,0.3,0.9,0.2,1.2-0.1l1.8-2.5v2c0,0.5,0.3,0.8,0.8,0.8c0.5,0,0.8-0.3,0.8-0.8v-2.1l1.8,2.6
	c0.1,0.2,0.4,0.3,0.7,0.3c0.1,0,0.3-0.1,0.5-0.1c0.3-0.3,0.5-0.7,0.2-1.2l-3.2-4.4v-2.2c1.2,0.3,2.3,0.5,3.5,0.5
	c1.2,0,2.4-0.2,3.5-0.5v2.4L26,48c-0.3,0.3-0.2,0.9,0.1,1.2c0.3,0.3,0.9,0.2,1.2-0.1l1.8-2.5v2c0,0.5,0.3,0.8,0.8,0.8
	s0.8-0.3,0.8-0.8v-2.1l1.8,2.6c0.1,0.2,0.4,0.3,0.7,0.3c0.1,0,0.3-0.1,0.5-0.1c0.3-0.3,0.5-0.7,0.2-1.2l-3.2-4.4v-2.8
	c4.5-2,7.7-6.5,7.7-11.7v-0.2l12.7-18C51.7,10.2,51.7,9.6,51.5,9.2z M37.2,27.9c-0.1,0.1-0.1,0.3-0.1,0.5v0.4C37,35,32,40,25.8,40
	c-6.2,0-11.2-5-11.2-11.2v-0.4c0-0.1-0.1-0.3-0.1-0.5L2.2,10.5L14.1,16c0.2,0.1,0.5,0.1,0.7,0c0.2-0.1,0.4-0.3,0.5-0.5
	c1.5-4.6,5.8-7.7,10.6-7.7c4.9,0,9.2,3.1,10.6,7.7c0.1,0.2,0.2,0.4,0.5,0.5c0.2,0.1,0.5,0.1,0.7,0l11.9-5.5L37.2,27.9z"/>
<path id="path26-2_6_" fill="#FFFFFF" d="M21.1,23.1l4.2,1.4c0.2,0.1,0.4,0.2,0.6,0.2
	c0.3,0,0.6-0.1,0.8-0.3c0.2-0.2,0.2-0.4,0.2-0.6v-3.2c0-0.2-0.1-0.4-0.2-0.6c-0.3-0.3-0.9-0.4-1.3-0.2l-4.2,1.4
	c-0.1,0-0.2,0.1-0.3,0.2c-0.4,0.4-0.4,1.1,0,1.5C20.8,23,20.9,23,21.1,23.1L21.1,23.1z M25.1,21.5v1.1l-1.7-0.6L25.1,21.5L25.1,21.5
	z"/>
</svg>
